<svg xmlns="http://www.w3.org/2000/svg" viewBox="0 0 645.77 66.52" role="img" aria-label="Constructiv AI" xmlns:c2pa="http://c2pa.org/manifest"><metadata><c2pa:manifest>AAAWgmp1bWIAAAAeanVtZGMycGEAEQAQgAAAqgA4m3EDYzJwYQAAABZcanVtYgAAAEdqdW1kYzJtYQARABCAAACqADibcQN1cm46YzJwYTo0YzkwYTQzNS04NzFmLTQzNTMtYWY1OC1jYTBhMmRhYTgzYjQAAAADl2p1bWIAAAApanVtZGMyYXMAEQAQgAAAqgA4m3EDYzJwYS5hc3NlcnRpb25zAAAAALxqdW1iAAAARGp1bWRjYm9yABEAEIAAAKoAOJtxE2MycGEuaW5ncmVkaWVudC52MwAAAAAYYzJzaHMxCsQyxIbxSw4pPaPuoDQAAABwY2JvcqNpZGM6Zm9ybWF0bWltYWdlL3N2Zyt4bWxqaW5zdGFuY2VJRHgseG1wOmlpZDo2Njc4MDcwOS0xNDZhLTQyNmUtYTMyYy00MjgyZDhlZDYwYmVscmVsYXRpb25zaGlwaHBhcmVudE9mAAAB4mp1bWIAAABBanVtZGNib3IAEQAQgAAAqgA4m3ETYzJwYS5hY3Rpb25zLnYyAAAAABhjMnNoK+VKALdq0dHm9hPMY7Ig2wAAAZljYm9yomdhY3Rpb25zgqJmYWN0aW9ua2MycGEub3BlbmVkanBhcmFtZXRlcnOha2luZ3JlZGllbnRzgaJjdXJseC1zZWxmI2p1bWJmPWMycGEuYXNzZXJ0aW9ucy9jMnBhLmluZ3JlZGllbnQudjNkaGFzaFggMLE78JAw16tHJ/JxpLgBVvr4C7TznpoP/l5pb21Z9NKkZmFjdGlvbngdY29tLmFudGhyb3BpYy5jbGF1ZGUucHJvdmlkZWRqcGFyYW1ldGVyc6F4H2NvbS5hbnRocm9waWMub3JpZ2luLWNvbmZpZGVuY2VndW5rbm93bmtkZXNjcmlwdGlvbnhmQ2xhdWRlIHByb3ZpZGVkIHRoaXMgZmlsZSBhdCB0aGUgcmVxdWVzdCBvZiBhIHVzZXIgYW5kIG1heSBoYXZlIGNyZWF0ZWQgb3IgbW9kaWZpZWQgdGhlIGZpbGUgY29udGVudHMubXNvZnR3YXJlQWdlbnShZG5hbWVmQ2xhdWRlcmFsbEFjdGlvbnNJbmNsdWRlZPUAAADIanVtYgAAAEBqdW1kY2JvcgARABCAAACqADibcRNjMnBhLmhhc2guZGF0YQAAAAAYYzJzaCloa0mxEklcKz47BZitO3MAAACAY2JvcqVjYWxnZnNoYTI1NmNwYWRNAAAAAAAAAAAAAAAAAGRoYXNoWCCIdzh2T47ywYGiUv7sBTZTa1bzFTDoRgYcfGAyMgizwmRuYW1lbmp1bWJmIG1hbmlmZXN0amV4Y2x1c2lvbnOBomVzdGFydBipZmxlbmd0aBkeBAAAAj5qdW1iAAAAJ2p1bWRjMmNsABEAEIAAAKoAOJtxA2MycGEuY2xhaW0udjIAAAACD2Nib3KlY2FsZ2ZzaGEyNTZpc2lnbmF0dXJleE1zZWxmI2p1bWJmPS9jMnBhL3VybjpjMnBhOjRjOTBhNDM1LTg3MWYtNDM1My1hZjU4LWNhMGEyZGFhODNiNC9jMnBhLnNpZ25hdHVyZWppbnN0YW5jZUlEeCx4bXA6aWlkOmIxNGJiZjY4LTlhNWUtNGM2My1hNmRhLWExNGEyNDQ3NTVlZnJjcmVhdGVkX2Fzc2VydGlvbnODomN1cmx4LXNlbGYjanVtYmY9YzJwYS5hc3NlcnRpb25zL2MycGEuaW5ncmVkaWVudC52M2RoYXNoWCAwsTvwkDDXq0cn8nGkuAFW+vgLtPOemg/+XmlvbVn00qJjdXJseCpzZWxmI2p1bWJmPWMycGEuYXNzZXJ0aW9ucy9jMnBhLmFjdGlvbnMudjJkaGFzaFggfv1YblZiZ9Qo04VXq2uKnx3/pKaoVKzT55of9feWVciiY3VybHgpc2VsZiNqdW1iZj1jMnBhLmFzc2VydGlvbnMvYzJwYS5oYXNoLmRhdGFkaGFzaFggQvyWUr5Tlm/oz8moJizIdH2rogPpDMNTsgtZ+shm1xB0Y2xhaW1fZ2VuZXJhdG9yX2luZm+jZG5hbWVvQW50aHJvcGljIEZpbGVzZ3ZlcnNpb25lMS4wLjBrc3BlY1ZlcnNpb25lMi40LjAAABA4anVtYgAAAChqdW1kYzJjcwARABCAAACqADibcQNjMnBhLnNpZ25hdHVyZQAAABAIY2JvctKEWQISogEmGCFZAgowggIGMIIBjaADAgECAhRA5aAK7sI50L64g/oGQgU9Z1UTADAKBggqhkjOPQQDAzBJMRcwFQYDVQQKEw5BbnRocm9waWMsIFBCQzEuMCwGA1UEAxMlQW50aHJvcGljIENvbnRlbnQgQ3JlZGVudGlhbHMgUm9vdCBDQTAeFw0yNjA4MDcxODQzNTZaFw0yODA4MDYxOTQzNTZaMEQxFzAVBgNVBAoTDkFudGhyb3BpYywgUEJDMSkwJwYDVQQDEyBBbnRocm9waWMgQ2xhdWRlIENvbnRlbnQgU2lnbmluZzBZMBMGByqGSM49AgEGCCqGSM49AwEHA0IABJh6CmvLUBgFFNU0vUKlOVtE6djd17L5SuwX0LemFisBM3dkd/3cyjxFA3Qo5S46fX0/ihY0VZ7mfb9KF703t5OjWDBWMA4GA1UdDwEB/wQEAwIHgDAVBgNVHSUEDjAMBgorBgEEAYPoXgIBMAwGA1UdEwEB/wQCMAAwHwYDVR0jBBgwFoAUzlHiBIFOZFsj+OPEz5o+nMHXXMIwCgYIKoZIzj0EAwMDZwAwZAIwMXMdFJ4BetLLVY7ORuE9noqbbAZOZn/aArXyTwFAZfKrPzxF2vPoJNf1+UCdg1XGAjBwX1zd9WGqYkqmL5SFqw1QySjr1zJfpJM9+1rdDwSPLMOPOjKuiXjoU/pUUeG9RwmhY3BhZFkNngAAAAAAAAAAAAAAAAAAAAAAAAAAAAAAAAAAAAAAAAAAAAAAAAAAAAAAAAAAAAAAAAAAAAAAAAAAAAAAAAAAAAAAAAAAAAAAAAAAAAAAAAAAAAAAAAAAAAAAAAAAAAAAAAAAAAAAAAAAAAAAAAAAAAAAAAAAAAAAAAAAAAAAAAAAAAAAAAAAAAAAAAAAAAAAAAAAAAAAAAAAAAAAAAAAAAAAAAAAAAAAAAAAAAAAAAAAAAAAAAAAAAAAAAAAAAAAAAAAAAAAAAAAAAAAAAAAAAAAAAAAAAAAAAAAAAAAAAAAAAAAAAAAAAAAAAAAAAAAAAAAAAAAAAAAAAAAAAAAAAAAAAAAAAAAAAAAAAAAAAAAAAAAAAAAAAAAAAAAAAAAAAAAAAAAAAAAAAAAAAAAAAAAAAAAAAAAAAAAAAAAAAAAAAAAAAAAAAAAAAAAAAAAAAAAAAAAAAAAAAAAAAAAAAAAAAAAAAAAAAAAAAAAAAAAAAAAAAAAAAAAAAAAAAAAAAAAAAAAAAAAAAAAAAAAAAAAAAAAAAAAAAAAAAAAAAAAAAAAAAAAAAAAAAAAAAAAAAAAAAAAAAAAAAAAAAAAAAAAAAAAAAAAAAAAAAAAAAAAAAAAAAAAAAAAAAAAAAAAAAAAAAAAAAAAAAAAAAAAAAAAAAAAAAAAAAAAAAAAAAAAAAAAAAAAAAAAAAAAAAAAAAAAAAAAAAAAAAAAAAAAAAAAAAAAAAAAAAAAAAAAAAAAAAAAAAAAAAAAAAAAAAAAAAAAAAAAAAAAAAAAAAAAAAAAAAAAAAAAAAAAAAAAAAAAAAAAAAAAAAAAAAAAAAAAAAAAAAAAAAAAAAAAAAAAAAAAAAAAAAAAAAAAAAAAAAAAAAAAAAAAAAAAAAAAAAAAAAAAAAAAAAAAAAAAAAAAAAAAAAAAAAAAAAAAAAAAAAAAAAAAAAAAAAAAAAAAAAAAAAAAAAAAAAAAAAAAAAAAAAAAAAAAAAAAAAAAAAAAAAAAAAAAAAAAAAAAAAAAAAAAAAAAAAAAAAAAAAAAAAAAAAAAAAAAAAAAAAAAAAAAAAAAAAAAAAAAAAAAAAAAAAAAAAAAAAAAAAAAAAAAAAAAAAAAAAAAAAAAAAAAAAAAAAAAAAAAAAAAAAAAAAAAAAAAAAAAAAAAAAAAAAAAAAAAAAAAAAAAAAAAAAAAAAAAAAAAAAAAAAAAAAAAAAAAAAAAAAAAAAAAAAAAAAAAAAAAAAAAAAAAAAAAAAAAAAAAAAAAAAAAAAAAAAAAAAAAAAAAAAAAAAAAAAAAAAAAAAAAAAAAAAAAAAAAAAAAAAAAAAAAAAAAAAAAAAAAAAAAAAAAAAAAAAAAAAAAAAAAAAAAAAAAAAAAAAAAAAAAAAAAAAAAAAAAAAAAAAAAAAAAAAAAAAAAAAAAAAAAAAAAAAAAAAAAAAAAAAAAAAAAAAAAAAAAAAAAAAAAAAAAAAAAAAAAAAAAAAAAAAAAAAAAAAAAAAAAAAAAAAAAAAAAAAAAAAAAAAAAAAAAAAAAAAAAAAAAAAAAAAAAAAAAAAAAAAAAAAAAAAAAAAAAAAAAAAAAAAAAAAAAAAAAAAAAAAAAAAAAAAAAAAAAAAAAAAAAAAAAAAAAAAAAAAAAAAAAAAAAAAAAAAAAAAAAAAAAAAAAAAAAAAAAAAAAAAAAAAAAAAAAAAAAAAAAAAAAAAAAAAAAAAAAAAAAAAAAAAAAAAAAAAAAAAAAAAAAAAAAAAAAAAAAAAAAAAAAAAAAAAAAAAAAAAAAAAAAAAAAAAAAAAAAAAAAAAAAAAAAAAAAAAAAAAAAAAAAAAAAAAAAAAAAAAAAAAAAAAAAAAAAAAAAAAAAAAAAAAAAAAAAAAAAAAAAAAAAAAAAAAAAAAAAAAAAAAAAAAAAAAAAAAAAAAAAAAAAAAAAAAAAAAAAAAAAAAAAAAAAAAAAAAAAAAAAAAAAAAAAAAAAAAAAAAAAAAAAAAAAAAAAAAAAAAAAAAAAAAAAAAAAAAAAAAAAAAAAAAAAAAAAAAAAAAAAAAAAAAAAAAAAAAAAAAAAAAAAAAAAAAAAAAAAAAAAAAAAAAAAAAAAAAAAAAAAAAAAAAAAAAAAAAAAAAAAAAAAAAAAAAAAAAAAAAAAAAAAAAAAAAAAAAAAAAAAAAAAAAAAAAAAAAAAAAAAAAAAAAAAAAAAAAAAAAAAAAAAAAAAAAAAAAAAAAAAAAAAAAAAAAAAAAAAAAAAAAAAAAAAAAAAAAAAAAAAAAAAAAAAAAAAAAAAAAAAAAAAAAAAAAAAAAAAAAAAAAAAAAAAAAAAAAAAAAAAAAAAAAAAAAAAAAAAAAAAAAAAAAAAAAAAAAAAAAAAAAAAAAAAAAAAAAAAAAAAAAAAAAAAAAAAAAAAAAAAAAAAAAAAAAAAAAAAAAAAAAAAAAAAAAAAAAAAAAAAAAAAAAAAAAAAAAAAAAAAAAAAAAAAAAAAAAAAAAAAAAAAAAAAAAAAAAAAAAAAAAAAAAAAAAAAAAAAAAAAAAAAAAAAAAAAAAAAAAAAAAAAAAAAAAAAAAAAAAAAAAAAAAAAAAAAAAAAAAAAAAAAAAAAAAAAAAAAAAAAAAAAAAAAAAAAAAAAAAAAAAAAAAAAAAAAAAAAAAAAAAAAAAAAAAAAAAAAAAAAAAAAAAAAAAAAAAAAAAAAAAAAAAAAAAAAAAAAAAAAAAAAAAAAAAAAAAAAAAAAAAAAAAAAAAAAAAAAAAAAAAAAAAAAAAAAAAAAAAAAAAAAAAAAAAAAAAAAAAAAAAAAAAAAAAAAAAAAAAAAAAAAAAAAAAAAAAAAAAAAAAAAAAAAAAAAAAAAAAAAAAAAAAAAAAAAAAAAAAAAAAAAAAAAAAAAAAAAAAAAAAAAAAAAAAAAAAAAAAAAAAAAAAAAAAAAAAAAAAAAAAAAAAAAAAAAAAAAAAAAAAAAAAAAAAAAAAAAAAAAAAAAAAAAAAAAAAAAAAAAAAAAAAAAAAAAAAAAAAAAAAAAAAAAAAAAAAAAAAAAAAAAAAAAAAAAAAAAAAAAAAAAAAAAAAAAAAAAAAAAAAAAAAAAAAAAAAAAAAAAAAAAAAAAAAAAAAAAAAAAAAAAAAAAAAAAAAAAAAAAAAAAAAAAAAAAAAAAAAAAAAAAAAAAAAAAAAAAAAAAAAAAAAAAAAAAAAAAAAAAAAAAAAAAAAAAAAAAAAAAAAAAAAAAAAAAAAAAAAAAAAAAAAAAAAAAAAAAAAAAAAAAAAAAAAAAAAAAAAAAAAAAAAAAAAAAAAAAAAAAAAAAAAAAAAAAAAAAAAAAAAAAAAAAAAAAAAAAAAAAAAAAAAAAAAAAAAAAAAAAAAAAAAAAAAAAAAAAAAAAAAAAAAAAAAAAAAAAAAAAAAAAAAAAAAAAAAAAAAAAAAAAAAAAAAAAAAAAAAAAAAAAAAAAAAAAAAAAAAAAAAAAAAAAAAAAAAAAAAAAAAAAAAAAAAAAAAAAAAAAAAAAAAAAAAAAAAAAAAAAAAAAAAAAAAAAAAAAAAAAAAAAAAAAAAAAAAAAAAAAAAAAAAAAAAAAAAAAAAAAAAAAAAAAAAAAAAAAAAAAAAAAAAAAAAAAAAAAAAAAAAAAAAAAAAAAAAAAAAAAAAAAAAAAAAAAAAAAAAAAAAAAAAAAAAAAAAAAAAAAAAAAAAAAAAAAAAAAAAAAAAAAAAAAAAAAAAAAAAAAAAAAAAAAAAAAAAAAAAAAAAAAAAAAAAAAAAAAAAAAAAAAAAAAAAAAAAAAAAAAAAAAAAAAAAAAAAAAAAAAAAAAAAAAAAAAAAAAAAAAAAAAAAAAAAAAAAAAAAAAAAAAAAAAAAAAAAAAAAAAAAAAAAAAAAAAAAAAAAAAAAAAAAAAAAAAAAAAAAAAAAAAAAAAAAAAAAAAAAAAAAAAAAAAAAAAAAAAAAAAAAAAAAAAAAAAAAAAAAAAAAAAAAAAAAAAAAAAAAAAAAAAAAAAAAAAAAAAAAAAAAAAAAAAAAAAAAAAAAAAAAAAAAAAAAAAAAAAAAAAAAAAAAAAAAAAAAAAAAAAAAAAAAAAAAAAAAAAAAAAAAAAAAAAAAAAAAAAAAAAAAAAAAAAAAAAAAAAAAAAAAAAAAAAAAAAAAAAAAAAAAAAAAAAAAAAAAAAAAAAAAAAAAAAAAAAAAAAAAAAAAAAAAAAAAAAAAAAAAAAAAAAAAAAAAAAAAAAAAAAAAAAAAAAAAAAAAAAAAAAAAAAAAAAAAAAAAAAAAAAAAAAAAAAAAAAAAAAAAAAAAAAAAAAAAAAAAAAAAAAAAAAAAAAAAAAAAAAAAAAAAAAAAAAAAAAAAAAAAAAAAAAAAAAAAAAAAAAAAAAAAAAAAAAAAAAAAAAAAAAAAAAAAAAAAAAAAAAAAAAAAAAAAAAAAAAAAAAAAAAAAAAAAAAAAAAAAAAAAAAAAAAAAAAAAAAAAAAAAAAAAAAAAAAAAAAAAAAAAAAAAAAAAAAAAAAAAAAAAAAAAAAAAAAAAAAAAAAAAAAAAAAAAAAAAAAAAAAAAAAAAAAAAAAAAAAAAAAAAAAAAAAAAAAAAAAAAAAAAAAAAAAAAAAAAAAAAAAAAAAAAAAAAAAAAAAAAAAAAAAAAAAAAAAAAAAAAAAAAAAAAAAAAAAAAAAAAAAAAAAAAAAAAAAAAAAAAAAAPZYQGVpucVtKgJRbRGof29TaTD+tEOKm4EUTo4nUnFab6xDvkBEdxnahRLyIkXPf+Ds0UUpPDjyYE/zqajmSuVOFcU=</c2pa:manifest></metadata><title>Constructiv AI</title><path fill="#1D6FB8" d="M0 32.43V16.63L28.8 0l28.8 16.63v15.8H47.63V22.39L28.8 11.52 9.98 22.39V32.43Z"></path><path fill="#C5283D" d="M0 34.09v15.8l28.8 16.63 28.8 -16.63V34.09H47.63v10.04L28.8 55 9.98 44.13V34.09Z"></path><path fill="#1A1F2B" d="M109.89 66.52Q102.63 66.52 98.45 63.8Q94.27 61.07 92.57 56.23Q90.87 51.38 90.87 44.94V21.68Q90.87 14.99 92.57 10.14Q94.27 5.3 98.45 2.65Q102.63 0 109.89 0Q116.85 0 120.79 2.33Q124.72 4.67 126.38 8.89Q128.03 13.11 128.03 18.7V24.2H115.19V18.13Q115.19 15.85 114.96 13.88Q114.72 11.9 113.63 10.67Q112.53 9.43 109.9 9.43Q107.32 9.43 106.1 10.72Q104.87 12.02 104.54 14.07Q104.21 16.13 104.21 18.55V48.01Q104.21 50.75 104.67 52.77Q105.12 54.79 106.36 55.9Q107.6 57.01 109.9 57.01Q112.45 57.01 113.55 55.74Q114.64 54.48 114.92 52.42Q115.19 50.36 115.19 48.03V41.66H128.03V47.09Q128.03 52.69 126.44 57.08Q124.84 61.48 120.91 64Q116.98 66.52 109.89 66.52ZM157.4 66.52Q150.27 66.52 146.1 63.96Q141.92 61.4 140.12 56.61Q138.31 51.82 138.31 45.23V21.04Q138.31 14.39 140.13 9.7Q141.94 5 146.11 2.5Q150.27 0 157.4 0Q164.58 0 168.77 2.51Q172.96 5.02 174.77 9.71Q176.59 14.39 176.59 21.04V45.24Q176.59 51.82 174.77 56.6Q172.96 61.38 168.77 63.95Q164.58 66.52 157.4 66.52ZM157.4 57.01Q159.92 57.01 161.14 55.81Q162.35 54.61 162.73 52.66Q163.12 50.7 163.12 48.49V17.88Q163.12 15.6 162.73 13.7Q162.35 11.79 161.14 10.61Q159.92 9.43 157.4 9.43Q154.99 9.43 153.77 10.61Q152.55 11.79 152.17 13.7Q151.78 15.6 151.78 17.88V48.49Q151.78 50.7 152.13 52.66Q152.49 54.61 153.68 55.81Q154.87 57.01 157.4 57.01ZM188.54 65.61V0.81H197.79L212.16 34.53V0.81H223.08V65.61H214.23L199.81 29.74V65.61ZM252.85 66.52Q246.87 66.52 242.87 64.31Q238.87 62.1 236.82 57.64Q234.78 53.18 234.52 46.32L245.86 44.41Q245.97 48.42 246.68 51.11Q247.4 53.81 248.78 55.12Q250.17 56.44 252.29 56.44Q254.8 56.44 255.72 54.83Q256.63 53.21 256.63 51.11Q256.63 47.02 254.7 44.28Q252.76 41.54 249.53 38.75L242.81 32.87Q239.23 29.82 236.92 25.99Q234.62 22.17 234.62 16.53Q234.62 8.53 239.33 4.26Q244.04 0 252.15 0Q257.06 0 260.17 1.6Q263.27 3.19 264.98 5.87Q266.69 8.55 267.41 11.71Q268.13 14.87 268.28 18.04L256.94 19.68Q256.83 16.73 256.46 14.49Q256.08 12.25 255.01 10.99Q253.93 9.73 251.77 9.73Q249.48 9.73 248.35 11.43Q247.23 13.14 247.23 15.21Q247.23 18.68 248.8 20.88Q250.36 23.08 253.04 25.46L259.6 31.22Q263.72 34.73 266.61 39.27Q269.51 43.8 269.51 50.39Q269.51 55 267.44 58.67Q265.38 62.34 261.65 64.43Q257.92 66.52 252.85 66.52ZM285.77 65.61V10.62H275.76V0.81H308.92V10.62H299.03V65.61ZM317.9 65.61V0.81H334.72Q341.26 0.81 345.94 2.31Q350.62 3.81 353.17 7.55Q355.71 11.28 355.71 17.95Q355.71 21.9 355.04 25.01Q354.36 28.12 352.63 30.36Q350.91 32.61 347.77 34.01L356.72 65.61H343.22L335.81 36.28H331.1V65.61ZM331.1 28.42H334.98Q338.19 28.42 340.02 27.36Q341.85 26.31 342.63 24.21Q343.4 22.11 343.4 18.95Q343.4 14.47 341.76 12.11Q340.12 9.75 335.6 9.75H331.1ZM386.04 66.52Q378.68 66.52 374.57 64Q370.47 61.49 368.86 56.72Q367.24 51.96 367.24 45.16V0.81H380.23V46.94Q380.23 49.4 380.6 51.71Q380.97 54.01 382.22 55.45Q383.47 56.88 386.04 56.88Q388.68 56.88 389.89 55.45Q391.1 54.01 391.44 51.71Q391.78 49.4 391.78 46.94V0.81H404.81V45.16Q404.81 51.96 403.17 56.72Q401.52 61.49 397.46 64Q393.39 66.52 386.04 66.52ZM435.25 66.52Q427.99 66.52 423.81 63.8Q419.63 61.07 417.93 56.23Q416.23 51.38 416.23 44.94V21.68Q416.23 14.99 417.93 10.14Q419.63 5.3 423.81 2.65Q427.99 0 435.25 0Q442.21 0 446.15 2.33Q450.08 4.67 451.74 8.89Q453.39 13.11 453.39 18.7V24.2H440.55V18.13Q440.55 15.85 440.32 13.88Q440.08 11.9 438.99 10.67Q437.89 9.43 435.26 9.43Q432.68 9.43 431.46 10.72Q430.23 12.02 429.9 14.07Q429.57 16.13 429.57 18.55V48.01Q429.57 50.75 430.03 52.77Q430.48 54.79 431.72 55.9Q432.96 57.01 435.26 57.01Q437.81 57.01 438.91 55.74Q440 54.48 440.28 52.42Q440.55 50.36 440.55 48.03V41.66H453.39V47.09Q453.39 52.69 451.8 57.08Q450.2 61.48 446.27 64Q442.34 66.52 435.25 66.52ZM470.73 65.61V10.62H460.72V0.81H493.88V10.62H483.99V65.61ZM503.03 65.61V0.81H516.19V65.61ZM538.46 65.61L526.19 0.81H537.63L545.28 45.61L552.46 0.81H564.42L552.05 65.61Z"></path><path fill="#1D6FB8" d="M588.17 8.41H645.77V57.91H588.17Z"></path><path fill="#FFFFFF" d="M602.61 46.98L607.95 19.44H614.2L619.49 46.98H614.3L613.31 40.93H608.93L607.9 46.98ZM609.47 37.48H612.75L611.1 26.38ZM625.73 46.98V19.44H631.33V46.98Z"></path></svg>